<?xml version="1.0" encoding="UTF-8" standalone="no"?>
<svg version="1.1" xmlns="http://www.w3.org/2000/svg" xmlns:xlink="http://www.w3.org/1999/xlink">

    <symbol id="message" viewBox="0 0 20 20" >
        <path d="M10 0.5C4.48603 0.5 2.68755e-05 4.53733 2.68755e-05 9.5C2.68755e-05 11.2347 0.548694 12.915 1.58936 14.368C1.39236 16.547 0.86436 18.1647 0.0976935 18.931C-0.00363979 19.0323 -0.0289731 19.1873 0.0350269 19.3153C0.0916935 19.4297 0.20836 19.5 0.33336 19.5C0.348694 19.5 0.364027 19.499 0.379694 19.4967C0.514694 19.4777 3.65069 19.0263 5.91903 17.717C7.20703 18.2367 8.57903 18.5 10 18.5C15.514 18.5 20 14.4627 20 9.5C20 4.53733 15.514 0.5 10 0.5ZM5.33336 10.8333C4.59803 10.8333 4.00003 10.2353 4.00003 9.5C4.00003 8.76467 4.59803 8.16667 5.33336 8.16667C6.06869 8.16667 6.66669 8.76467 6.66669 9.5C6.66669 10.2353 6.06869 10.8333 5.33336 10.8333ZM10 10.8333C9.26469 10.8333 8.66669 10.2353 8.66669 9.5C8.66669 8.76467 9.26469 8.16667 10 8.16667C10.7354 8.16667 11.3334 8.76467 11.3334 9.5C11.3334 10.2353 10.7354 10.8333 10 10.8333ZM14.6667 10.8333C13.9314 10.8333 13.3334 10.2353 13.3334 9.5C13.3334 8.76467 13.9314 8.16667 14.6667 8.16667C15.402 8.16667 16 8.76467 16 9.5C16 10.2353 15.402 10.8333 14.6667 10.8333Z"/>
    </symbol>

    <symbol id="call" viewBox="0 0 20 20" >
        <path d="M16.5557 11.8149C15.4537 11.8149 14.3716 11.6426 13.3462 11.3037C12.8437 11.1323 12.2261 11.2896 11.9194 11.6045L9.8955 13.1324C7.54833 11.8794 6.10252 10.4341 4.8667 8.10455L6.34959 6.13336C6.73486 5.74861 6.87305 5.18658 6.70748 4.65923C6.36717 3.62845 6.1943 2.54691 6.1943 1.44441C6.19434 0.647953 5.54639 0 4.74998 0H1.44436C0.647953 0 0 0.647953 0 1.44436C0 10.5733 7.42678 18 16.5557 18C17.3521 18 18 17.352 18 16.5556V13.2593C18 12.4629 17.352 11.8149 16.5557 11.8149Z"/>
    </symbol>

    <symbol id="post" viewBox="0 0 20 20" >
        <path d="M15.1172 0H4.88281C2.19043 0 0 2.19043 0 4.88281C0 5.47633 0 16.8675 0 17.4609C0 17.7845 0.262344 18.0469 0.585938 18.0469C0.909531 18.0469 1.17188 17.7845 1.17188 17.4609V16.0156H8.59375V17.4609C8.59375 17.7845 8.85609 18.0469 9.17969 18.0469C9.50328 18.0469 9.76562 17.7845 9.76562 17.4609V16.0156H18.8281V17.4609C18.8281 17.7845 19.0905 18.0469 19.4141 18.0469C19.7377 18.0469 20 17.7845 20 17.4609C20 16.8673 20 5.47625 20 4.88281C20 2.18477 17.817 0 15.1172 0ZM8.59375 14.8438H1.17188V4.88281C1.17188 2.8366 2.8366 1.17188 4.88281 1.17188C6.92902 1.17188 8.59375 2.8366 8.59375 4.88281V14.8438Z"/>
    </symbol>

    <symbol id="map" viewBox="0 0 20 20" >
        <path d="M7.36279 0C3.30314 0 0 3.30314 0 7.3632C0 8.42222 0.216757 9.43334 0.643926 10.3687C2.48483 14.3971 6.01435 18.6501 7.05249 19.8575C7.13027 19.9478 7.24366 19.9998 7.36299 19.9998C7.48232 19.9998 7.59571 19.9478 7.67349 19.8575C8.71123 18.6503 12.2407 14.3975 14.0823 10.3687C14.5096 9.43334 14.7262 8.42222 14.7262 7.3632C14.7258 3.30314 11.4226 0 7.36279 0ZM7.36279 11.1877C5.25396 11.1877 3.53812 9.47182 3.53812 7.36299C3.53812 5.25396 5.25396 3.53812 7.36279 3.53812C9.47162 3.53812 11.1875 5.25396 11.1875 7.36299C11.1877 9.47182 9.47182 11.1877 7.36279 11.1877Z"/>
    </symbol>

    <symbol id="user" viewBox="0 0 24 24" >
        <path d="M12 15.7156C8.6488 15.7156 5.92236 18.442 5.92236 21.7932C5.92236 21.9871 5.93188 22.1788 5.94983 22.368C7.76605 23.432 9.83917 24 12 24C14.1608 24 16.2339 23.432 18.0502 22.368C18.0681 22.1786 18.0776 21.9871 18.0776 21.7932C18.0776 18.442 15.3512 15.7156 12 15.7156Z"/>
        <path d="M20.4853 3.51471C18.2188 1.24823 15.2054 0 12 0C8.79456 0 5.78119 1.24823 3.51471 3.51471C1.24823 5.78119 0 8.79456 0 12C0 15.2053 1.24823 18.2188 3.51471 20.4853C3.83734 20.8081 4.17572 21.1093 4.5271 21.39C4.68439 18.4435 6.55389 15.9443 9.15619 14.8713C7.72577 13.9387 6.7782 12.325 6.7782 10.4938C6.7782 7.61444 9.12067 5.27197 12 5.27197C14.8793 5.27197 17.2218 7.61444 17.2218 10.4938C17.2218 12.325 16.2742 13.9387 14.8438 14.8713C17.4461 15.9443 19.3156 18.4435 19.4729 21.39C19.8243 21.1093 20.1627 20.8079 20.4853 20.4853C22.7518 18.2188 24 15.2053 24 12C24 8.79456 22.7518 5.78119 20.4853 3.51471V3.51471Z"/>
        <path d="M15.8157 10.4938C15.8157 8.38971 14.104 6.67822 12.0001 6.67822C9.89624 6.67822 8.18457 8.38989 8.18457 10.4938C8.18457 12.5977 9.89624 14.3093 12.0001 14.3093C14.104 14.3093 15.8157 12.5977 15.8157 10.4938Z"/>
    </symbol>
</svg>




