<svg width="80" height="80" viewBox="0 0 80 80" fill="none" xmlns="http://www.w3.org/2000/svg">
<path d="M74.3997 36.1505L72.328 27.8637C72.8944 27.7434 73.3194 27.2409 73.3194 26.6389V25.3028C73.3194 22.4019 70.9592 20.0419 68.0584 20.0419H58.6222V17.2859C58.6222 15.8584 57.4609 14.6972 56.0334 14.6972H7.93313C6.50562 14.6972 5.34437 15.8584 5.34437 17.2859V40C5.34437 40.6917 5.90516 41.2527 6.59703 41.2527C7.28875 41.2527 7.84969 40.6919 7.84969 40V17.2859C7.84969 17.2398 7.88703 17.2025 7.93313 17.2025H56.0333C56.0794 17.2025 56.1167 17.2398 56.1167 17.2859V40.0003C56.1167 40.692 56.6775 41.253 57.3694 41.253C58.0611 41.253 58.622 40.6922 58.622 40.0003V38.5803H73.3984C73.3997 38.5803 73.4006 38.5806 73.4017 38.5806C73.403 38.5806 73.4041 38.5805 73.4052 38.5805C75.2234 38.5817 76.7673 39.7752 77.2977 41.4197H73.4027C72.7109 41.4197 72.15 41.9805 72.15 42.6723V45.3445C72.15 47.5087 73.9106 49.2694 76.0748 49.2694H77.4945V54.7808H74.2192C73.1433 51.6741 70.19 49.4362 66.722 49.4362C63.2541 49.4362 60.3006 51.6741 59.2248 54.7808H58.6217V45.3444C58.6217 44.6527 58.0609 44.0917 57.3691 44.0917C56.6773 44.0917 56.1164 44.6525 56.1164 45.3444V54.7805H30.1277C29.0517 51.6737 26.0984 49.4359 22.6305 49.4359C19.1625 49.4359 16.2091 51.6737 15.1333 54.7805H7.93313C7.88703 54.7805 7.84969 54.7431 7.84969 54.697V51.9412H13.2777C13.9694 51.9412 14.5303 51.3805 14.5303 50.6886C14.5303 49.9967 13.9695 49.4359 13.2777 49.4359H1.25266C0.560938 49.4359 0 49.9967 0 50.6886C0 51.3805 0.560781 51.9412 1.25266 51.9412H5.34453V54.697C5.34453 56.1245 6.50578 57.2858 7.93328 57.2858H14.6995C14.6992 57.3136 14.6973 57.3412 14.6973 57.3692C14.6973 61.7436 18.2563 65.3023 22.6305 65.3023C27.0047 65.3023 30.5636 61.7436 30.5636 57.3692C30.5636 57.3411 30.5617 57.3136 30.5614 57.2858H58.7911C58.7908 57.3136 58.7889 57.3412 58.7889 57.3692C58.7889 61.7436 62.3478 65.3023 66.722 65.3023C71.0963 65.3023 74.6552 61.7436 74.6552 57.3692C74.6552 57.3411 74.6533 57.3136 74.653 57.2858H78.7472C79.4389 57.2858 79.9998 56.725 79.9998 56.0331V42.672C80 39.3733 77.5661 36.6325 74.3997 36.1505ZM58.6222 22.547H68.0584C69.578 22.547 70.8142 23.7833 70.8142 25.3028V25.3862H58.6222V22.547ZM58.6222 36.0751V27.8914H69.7527L71.7986 36.0751H58.6222ZM22.6305 62.7975C19.6375 62.7975 17.2025 60.3627 17.2025 57.3695C17.2025 54.3764 19.6375 51.9416 22.6305 51.9416C25.6234 51.9416 28.0584 54.3764 28.0584 57.3695C28.0584 60.3627 25.6234 62.7975 22.6305 62.7975ZM66.7223 62.7975C63.7294 62.7975 61.2944 60.3627 61.2944 57.3695C61.2944 54.3764 63.7294 51.9416 66.7223 51.9416C69.7153 51.9416 72.1503 54.3764 72.1503 57.3695C72.1503 60.3627 69.7153 62.7975 66.7223 62.7975ZM77.4948 46.7641H76.0752C75.2923 46.7641 74.6555 46.1272 74.6555 45.3444V43.9247H77.4947V46.7641H77.4948Z" fill="#248AE9"/>
<path d="M22.6303 54.7809C21.2028 54.7809 20.0415 55.9421 20.0415 57.3696C20.0415 58.7971 21.2028 59.9584 22.6303 59.9584C24.0578 59.9584 25.219 58.7971 25.219 57.3696C25.219 55.9421 24.0578 54.7809 22.6303 54.7809Z" fill="#248AE9"/>
<path d="M66.7225 54.7809C65.295 54.7809 64.1338 55.9421 64.1338 57.3696C64.1338 58.7971 65.295 59.9584 66.7225 59.9584C68.15 59.9584 69.3113 58.7971 69.3113 57.3696C69.3113 55.9421 68.15 54.7809 66.7225 54.7809Z" fill="#248AE9"/>
<path d="M52.0252 49.4363H33.3195C32.6278 49.4363 32.0669 49.9971 32.0669 50.689C32.0669 51.3809 32.6277 51.9416 33.3195 51.9416H52.0252C52.7169 51.9416 53.2778 51.3809 53.2778 50.689C53.2778 49.9971 52.717 49.4363 52.0252 49.4363Z" fill="#248AE9"/>
<path d="M19.9584 44.0919H3.92502C3.2333 44.0919 2.67236 44.6526 2.67236 45.3445C2.67236 46.0364 3.23314 46.5972 3.92502 46.5972H19.9584C20.6502 46.5972 21.2111 46.0364 21.2111 45.3445C21.2111 44.6526 20.6502 44.0919 19.9584 44.0919Z" fill="#248AE9"/>
<path d="M43.5578 27.089C43.0688 26.5999 42.2755 26.5999 41.7864 27.0891L30.647 38.2283L24.8522 32.4335C24.363 31.9443 23.5698 31.9443 23.0808 32.4335C22.5916 32.9227 22.5916 33.7157 23.0808 34.2049L29.7614 40.8855C30.0059 41.1302 30.3266 41.2524 30.647 41.2524C30.9675 41.2524 31.2883 41.1302 31.5327 40.8855L43.5577 28.8605C44.0469 28.3712 44.0469 27.5782 43.5578 27.089Z" fill="white"/>
</svg>
